<?xml version="1.0" encoding="UTF-8"?>
<svg version="1.1" xmlns="http://www.w3.org/2000/svg" width="512" height="512">
<path d="M0 0 C1.20805298 -0.01283524 2.41610596 -0.02567047 3.6607666 -0.03889465 C5.61242737 -0.04997505 5.61242737 -0.04997505 7.60351562 -0.0612793 C8.26784103 -0.06535482 8.93216644 -0.06943035 9.61662292 -0.07362938 C13.12901493 -0.0944397 16.64136839 -0.10876637 20.15380859 -0.11816406 C23.77889816 -0.1292537 27.40337815 -0.16369608 31.02825165 -0.20333576 C33.81981549 -0.22947376 36.61123287 -0.23785302 39.40290833 -0.24144554 C41.38828264 -0.24867827 43.37355688 -0.27512056 45.35876465 -0.30183411 C46.56681763 -0.29890854 47.77487061 -0.29598297 49.01953125 -0.29296875 C50.61359802 -0.30176811 50.61359802 -0.30176811 52.23986816 -0.31074524 C55.72364258 0.3027075 56.89630575 1.38427408 59.00976562 4.17700195 C59.50976562 7.67700195 59.50976562 7.67700195 59.00976562 11.17700195 C56.79113533 14.08417268 55.49031634 15.01681838 52.00976562 16.17700195 C50.21639558 16.27325612 48.41971902 16.31240599 46.6237793 16.31884766 C45.52220993 16.32588211 44.42064056 16.33291656 43.28569031 16.34016418 C42.09506485 16.34432846 40.90443939 16.34849274 39.67773438 16.3527832 C37.16275204 16.37598054 34.64777805 16.40009784 32.1328125 16.42504883 C28.16294767 16.46017603 24.19339008 16.48951505 20.22338867 16.50292969 C16.39529124 16.51840108 12.56809409 16.55860756 8.74023438 16.6027832 C7.55568161 16.60087479 6.37112885 16.59896637 5.15068054 16.59700012 C-1.17268716 16.69085775 -5.23250282 16.83466324 -9.99023438 21.17700195 C-28.20940853 43.82786712 -15.60268371 79.1107018 -15.99023438 108.17700195 C143.06976563 108.17700195 302.12976563 108.17700195 466.00976562 108.17700195 C471.80198443 70.61289799 471.80198443 70.61289799 458.00976562 19.17700195 C454.58677083 16.95533906 451.72247607 16.92599167 447.69064426 16.92366886 C446.38297362 16.91805347 445.07530297 16.91243807 443.72800595 16.90665251 C442.27330579 16.91050224 440.81860609 16.91452996 439.36390686 16.91871643 C437.82134094 16.91586273 436.27877644 16.91212523 434.73621458 16.90757793 C430.49069107 16.89757664 426.24524998 16.89997576 421.99972022 16.90430486 C417.42363672 16.90677699 412.84757511 16.89771811 408.27149963 16.8899231 C400.33979482 16.87786799 392.40811011 16.87276964 384.47639656 16.8720417 C373.00296118 16.87071745 361.52957471 16.85561815 350.05615657 16.83654653 C331.43498607 16.80569093 312.81381434 16.78153149 294.19262695 16.76367188 C293.07771059 16.76259919 291.96279422 16.76152651 290.81409251 16.76042133 C278.37343825 16.74859967 265.93278349 16.7383947 253.49212646 16.72998047 C248.98050943 16.72690657 244.4688924 16.72381779 239.95727539 16.72070312 C238.84401695 16.71993779 237.73075852 16.71917245 236.58376498 16.71838392 C218.03444012 16.7053115 199.48515065 16.68068484 180.93585199 16.64695972 C169.48862854 16.62664637 158.04148072 16.61638355 146.59423911 16.61894893 C138.75337176 16.61998244 130.91256427 16.61037218 123.07171781 16.5923099 C118.54455819 16.58224537 114.01753095 16.57715768 109.49036407 16.58507729 C105.3483017 16.59223722 101.2064976 16.58571639 97.0644682 16.56819188 C95.56384022 16.56429819 94.06318881 16.56550445 92.56257094 16.57224876 C90.52663372 16.58067526 88.49064269 16.56895333 86.45472813 16.55617619 C85.32267179 16.55536173 84.19061545 16.55454727 83.02425438 16.55370814 C79.60319431 16.12619469 77.75578302 15.23300459 75.00976562 13.17700195 C73.00976562 10.17700195 73.00976562 10.17700195 73.19726562 6.67700195 C74.25230426 2.13222015 74.25230426 2.13222015 77.00976562 0.17700195 C79.80101353 -0.20019621 79.80101353 -0.20019621 83.26995945 -0.20331478 C83.91031864 -0.2079747 84.55067784 -0.21263462 85.21044186 -0.21743575 C87.37101416 -0.22945217 89.53096527 -0.21996528 91.69154358 -0.2106781 C93.25030907 -0.21484818 94.80907153 -0.2203239 96.36782831 -0.22699791 C100.66300062 -0.24151511 104.95798208 -0.23718827 109.25316513 -0.2298311 C113.88117733 -0.22511692 118.50914719 -0.23759399 123.137146 -0.24784851 C132.21003164 -0.26507878 141.28284816 -0.26586745 150.35574592 -0.26063561 C157.73116867 -0.25659902 165.10657095 -0.25803138 172.48199272 -0.26338387 C173.53056093 -0.26413229 174.57912914 -0.26488071 175.65947215 -0.26565181 C177.78951324 -0.26718326 179.91955433 -0.26872161 182.04959541 -0.27026678 C202.04461797 -0.28400815 222.03960146 -0.27854359 242.03462314 -0.26708157 C260.32475233 -0.25715667 278.61478025 -0.2700741 296.90489382 -0.29401576 C315.67907365 -0.31840597 334.45320632 -0.32801425 353.22740167 -0.32136303 C363.76993307 -0.31786946 374.31238665 -0.32011154 384.85490608 -0.33761406 C393.83386321 -0.35233543 402.81268779 -0.35297276 411.79164232 -0.33554315 C416.37211274 -0.32702854 420.95234639 -0.32489464 425.53280449 -0.3401947 C429.72950547 -0.35403902 433.92576677 -0.34928198 438.1224423 -0.32995547 C439.63732408 -0.32619421 441.15224106 -0.32912111 442.6670915 -0.33956712 C454.3066849 -0.41409598 463.55060996 1.05206955 472.25585938 9.24731445 C478.0154039 15.58409618 481.25678395 22.27661996 481.26703453 30.88352394 C481.27054061 31.54784009 481.27404668 32.21215623 481.277659 32.89660317 C481.28697576 35.12651551 481.28204903 37.35616686 481.27719116 39.58609009 C481.28092731 41.19948965 481.28552868 42.81288741 481.29092181 44.42628229 C481.30317205 48.86318644 481.30288895 53.3000153 481.30053306 57.73693252 C481.30012539 62.52102433 481.31115935 67.30509184 481.32064819 72.08917236 C481.33727116 81.46423452 481.34275836 90.83927154 481.34387295 100.2143472 C481.34482298 107.83570548 481.34893102 115.45705545 481.3552742 123.0784111 C481.37289152 144.68546342 481.38211251 166.29249585 481.38061325 187.8995554 C481.38049338 189.64733334 481.38049338 189.64733334 481.38037109 191.43041992 C481.38028933 192.59702799 481.38020757 193.76363606 481.38012333 194.96559589 C481.37931069 213.86600442 481.39844165 232.76633321 481.42664783 251.66671868 C481.45537987 271.07263873 481.46918789 290.4785199 481.46746027 309.88446176 C481.4667964 320.77967404 481.47228744 331.67480276 481.49381638 342.56999588 C481.51203254 351.84823799 481.51637203 361.12635869 481.50279753 370.40461095 C481.49626961 375.13711615 481.49614428 379.86938847 481.51350403 384.60187149 C481.52924794 388.93854775 481.52635769 393.27480672 481.50893576 397.61147289 C481.50586873 399.17611362 481.50948708 400.7407856 481.52065592 402.30538948 C481.61656194 416.6997202 478.61613255 427.20330543 469.00976562 438.17700195 C460.22929651 446.37891302 449.6583103 450.48995363 437.71601868 450.45115662 C436.50459089 450.45901163 436.50459089 450.45901163 435.26868981 450.46702534 C432.57726902 450.48196207 429.88603939 450.48272907 427.19458008 450.48339844 C425.25917238 450.49102376 423.3237677 450.4994519 421.3883667 450.50862122 C416.14280627 450.53052624 410.89730411 450.53935884 405.65170312 450.54444766 C402.37496962 450.54809356 399.09825135 450.55433461 395.82152367 450.56144905 C384.39232081 450.58592201 372.96316326 450.59899244 361.53393555 450.60253906 C350.87452557 450.60618077 340.21540238 450.63612714 329.55608016 450.67794365 C320.40434984 450.71258968 311.25271492 450.72808645 302.10091943 450.7287851 C296.63460139 450.72957934 291.16857616 450.73838699 285.70232582 450.76678276 C280.5664589 450.7928685 275.43112971 450.79522192 270.29522705 450.77912712 C268.40858479 450.77730551 266.52191224 450.7840672 264.63533592 450.79994583 C262.06376721 450.8202745 259.49410392 450.80993435 256.92256165 450.79173279 C255.79742573 450.81153274 255.79742573 450.81153274 254.6495598 450.83173269 C250.89671737 450.77086786 249.30672666 450.45178437 246.51130962 447.86514378 C244.46303882 444.19822331 244.90244891 442.16334213 246.00976562 438.17700195 C247.90510438 435.59244911 248.89803079 435.2142469 252.00976562 434.17700195 C253.59009754 434.08994767 255.17386941 434.05932244 256.7565918 434.06347656 C257.7307605 434.06359741 258.7049292 434.06371826 259.70861816 434.06384277 C261.24020569 434.07151672 261.24020569 434.07151672 262.80273438 434.0793457 C263.74330688 434.08035278 264.68387939 434.08135986 265.6529541 434.08239746 C269.167737 434.08763095 272.68250253 434.10159221 276.19726562 434.11450195 C284.05539062 434.13512695 291.91351563 434.15575195 300.00976562 434.17700195 C300.00976562 403.81700195 300.00976562 373.45700195 300.00976562 342.17700195 C250.50976562 342.17700195 201.00976562 342.17700195 150.00976562 342.17700195 C150.00976562 372.53700195 150.00976562 402.89700195 150.00976562 434.17700195 C174.13810631 434.0978688 174.13810631 434.0978688 198.26635742 433.99682617 C202.94104004 433.98779297 202.94104004 433.98779297 205.13191223 433.9861145 C206.65670439 433.98305044 208.1814918 433.97603101 209.70625305 433.96585083 C212.02064386 433.95117578 214.33473944 433.94919114 216.64916992 433.94995117 C217.95266891 433.94550995 219.25616791 433.94106873 220.59916687 433.93649292 C223.91478646 434.1703042 226.1003985 434.60026002 229.00976562 436.17700195 C231.49015469 439.89758556 231.47313766 441.77496766 231.00976562 446.17700195 C229.54046631 448.36791229 229.54046631 448.36791229 227.00976562 450.17700195 C223.93468219 450.56973285 221.2184994 450.71729786 218.14355469 450.68493652 C216.78518006 450.69429647 216.78518006 450.69429647 215.39936352 450.7038455 C212.35777617 450.71982954 209.31698425 450.70714962 206.27539062 450.69458008 C204.09724967 450.69999909 201.91911238 450.70712049 199.74098206 450.71582031 C193.8169574 450.73409142 187.89321072 450.72696811 181.96918106 450.71430397 C175.7674509 450.70418567 169.56574475 450.71356736 163.36401367 450.71984863 C152.27155585 450.72759968 141.17920733 450.71514774 130.08677113 450.69481128 C118.71944532 450.67461454 107.35237708 450.6849584 95.98505592 450.70579195 C85.64684547 450.72397859 75.30871652 450.72648693 64.97049522 450.71603727 C58.79860364 450.70981443 52.62683936 450.70893258 46.45495605 450.72218323 C40.64364453 450.73378685 34.8326804 450.72563346 29.02140617 450.7026062 C26.89464836 450.69734123 24.76786105 450.69879472 22.64111519 450.70765686 C6.52134312 450.76860375 -6.55211597 449.56428086 -18.99023438 438.17700195 C-29.37613992 426.65650168 -31.59195185 415.12822514 -31.5116272 400.05311584 C-31.51767706 398.43524566 -31.52545944 396.81738119 -31.53481233 395.19952673 C-31.555302 390.77803027 -31.55102698 386.35685944 -31.54245114 381.93533671 C-31.53750386 377.15744289 -31.55556068 372.37962618 -31.57052612 367.60176086 C-31.59598791 358.25122421 -31.59961163 348.9008025 -31.5949256 339.55023701 C-31.59135571 331.94856763 -31.59486611 324.34693308 -31.60337448 316.74526787 C-31.60456486 315.66228133 -31.60575524 314.57929478 -31.60698169 313.46349047 C-31.60940525 311.26323211 -31.61183352 309.06297376 -31.61426644 306.86271542 C-31.63600466 286.2423829 -31.63169823 265.62211585 -31.61949675 245.00177967 C-31.60915692 226.14764561 -31.63167537 207.29371816 -31.66969319 188.43962497 C-31.70845777 169.06626662 -31.7249608 149.69300601 -31.71744668 130.31960863 C-31.7136241 119.44845206 -31.7185837 108.5774714 -31.74687576 97.70634651 C-31.77071521 88.45274264 -31.77350002 79.19942298 -31.74929543 69.94581515 C-31.73752659 65.22722141 -31.73529366 60.50914736 -31.75930023 55.79058838 C-31.78104816 51.46562869 -31.77477812 47.14162163 -31.74677686 42.81670623 C-31.74149106 41.25761289 -31.74619095 39.69844453 -31.76224859 38.13942493 C-31.87480107 26.39038446 -29.66854726 17.10169179 -21.61523438 8.17700195 C-15.28748102 2.4244989 -8.44301117 0.07821011 0 0 Z M-15.99023438 124.17700195 C-15.99023438 154.86700195 -15.99023438 185.55700195 -15.99023438 217.17700195 C33.50976562 217.17700195 83.00976562 217.17700195 134.00976562 217.17700195 C134.00976562 186.48700195 134.00976562 155.79700195 134.00976562 124.17700195 C84.50976562 124.17700195 35.00976562 124.17700195 -15.99023438 124.17700195 Z M150.00976562 124.17700195 C150.00976562 154.86700195 150.00976562 185.55700195 150.00976562 217.17700195 C199.50976562 217.17700195 249.00976562 217.17700195 300.00976562 217.17700195 C300.00976562 186.48700195 300.00976562 155.79700195 300.00976562 124.17700195 C250.50976562 124.17700195 201.00976562 124.17700195 150.00976562 124.17700195 Z M316.00976562 124.17700195 C316.00976562 154.86700195 316.00976562 185.55700195 316.00976562 217.17700195 C365.50976562 217.17700195 415.00976562 217.17700195 466.00976562 217.17700195 C466.00976562 186.48700195 466.00976562 155.79700195 466.00976562 124.17700195 C416.50976562 124.17700195 367.00976562 124.17700195 316.00976562 124.17700195 Z M-15.99023438 233.17700195 C-15.99023438 263.86700195 -15.99023438 294.55700195 -15.99023438 326.17700195 C33.50976562 326.17700195 83.00976562 326.17700195 134.00976562 326.17700195 C134.00976562 295.48700195 134.00976562 264.79700195 134.00976562 233.17700195 C84.50976562 233.17700195 35.00976562 233.17700195 -15.99023438 233.17700195 Z M150.00976562 233.17700195 C150.00976562 263.86700195 150.00976562 294.55700195 150.00976562 326.17700195 C199.50976562 326.17700195 249.00976562 326.17700195 300.00976562 326.17700195 C300.00976562 295.48700195 300.00976562 264.79700195 300.00976562 233.17700195 C250.50976562 233.17700195 201.00976562 233.17700195 150.00976562 233.17700195 Z M316.00976562 233.17700195 C316.00976562 263.86700195 316.00976562 294.55700195 316.00976562 326.17700195 C365.50976562 326.17700195 415.00976562 326.17700195 466.00976562 326.17700195 C466.00976562 295.48700195 466.00976562 264.79700195 466.00976562 233.17700195 C416.50976562 233.17700195 367.00976562 233.17700195 316.00976562 233.17700195 Z M-15.99023438 342.17700195 C-20.66575863 382.55616407 -20.66575863 382.55616407 -7.99023438 426.17700195 C-2.25545781 431.06367776 3.83410063 434.43249884 11.47041321 434.41751099 C13.09624077 434.42163498 13.09624077 434.42163498 14.75491333 434.42584229 C16.52329056 434.41505646 16.52329056 434.41505646 18.32739258 434.40405273 C19.57657974 434.40434479 20.82576691 434.40463684 22.11280823 434.40493774 C25.52985379 434.40378463 28.94665654 434.3937666 32.36365914 434.37978983 C35.93775989 434.36727207 39.511864 434.36611115 43.08598328 434.36373901 C49.85029761 434.35752731 56.61454716 434.3411207 63.378833 434.32104003 C72.52208281 434.29448733 81.66535038 434.28370588 90.80862904 434.2720356 C105.20905641 434.25323988 119.60934708 434.21339217 134.00976562 434.17700195 C134.00976562 403.81700195 134.00976562 373.45700195 134.00976562 342.17700195 C84.50976562 342.17700195 35.00976562 342.17700195 -15.99023438 342.17700195 Z M316.00976562 342.17700195 C316.00976562 372.53700195 316.00976562 402.89700195 316.00976562 434.17700195 C338.51558129 434.32275287 338.51558129 434.32275287 361.02148438 434.42114258 C370.20375585 434.45077314 379.38579737 434.48554421 388.56787109 434.55419922 C395.25613671 434.60418382 401.94421519 434.63632822 408.63266242 434.64744443 C412.17113974 434.65393797 415.70908189 434.66909607 419.24738693 434.70565224 C423.20652717 434.7462209 427.16515361 434.74694175 431.12451172 434.74462891 C432.28545349 434.76260529 433.44639526 434.78058167 434.64251709 434.79910278 C444.01473592 434.74004454 450.86532643 432.17777751 457.88476562 425.92700195 C476.11587348 406.14796985 466.00976562 355.51020783 466.00976562 342.17700195 C416.50976562 342.17700195 367.00976562 342.17700195 316.00976562 342.17700195 Z " fill="#000000" transform="translate(30.990234375,30.822998046875)"/>
</svg>
